<?xml version="1.0" encoding="UTF-8" standalone="no"?>
<svg
   xmlns:dc="http://purl.org/dc/elements/1.1/"
   xmlns:cc="http://creativecommons.org/ns#"
   xmlns:rdf="http://www.w3.org/1999/02/22-rdf-syntax-ns#"
   xmlns:svg="http://www.w3.org/2000/svg"
   xmlns="http://www.w3.org/2000/svg"
   xmlns:sodipodi="http://sodipodi.sourceforge.net/DTD/sodipodi-0.dtd"
   xmlns:inkscape="http://www.inkscape.org/namespaces/inkscape"
   version="1.1"
   id="svg2"
   xml:space="preserve"
   width="342.66666"
   height="70.666664"
   viewBox="0 0 342.66666 70.666664"
   sodipodi:docname="логотип 1-1.eps"><metadata
     id="metadata8"><rdf:RDF><cc:Work
         rdf:about=""><dc:format>image/svg+xml</dc:format><dc:type
           rdf:resource="http://purl.org/dc/dcmitype/StillImage" /></cc:Work></rdf:RDF></metadata><defs
     id="defs6" /><sodipodi:namedview
     pagecolor="#ffffff"
     bordercolor="#666666"
     borderopacity="1"
     objecttolerance="10"
     gridtolerance="10"
     guidetolerance="10"
     inkscape:pageopacity="0"
     inkscape:pageshadow="2"
     inkscape:window-width="640"
     inkscape:window-height="480"
     id="namedview4" /><g
     id="g10"
     inkscape:groupmode="layer"
     inkscape:label="ink_ext_XXXXXX"
     transform="matrix(1.3333333,0,0,-1.3333333,0,70.666667)"><g
       id="g12"
       transform="scale(0.1)"><path
         d="M 117,505.457 274.727,307.066 v 137.52 c 0,19.406 -2.739,32.449 -8.293,39.289 -7.571,9.258 -20.293,13.691 -38.086,13.363 v 8.219 h 105.793 v -8.219 c -13.524,-1.769 -22.625,-4.023 -27.297,-6.761 -4.586,-2.817 -8.207,-7.325 -10.864,-13.606 -2.578,-6.277 -3.863,-17.07 -3.863,-32.285 v -266.66 h -7.972 L 67.9648,444.91 V 240.727 c 0,-18.516 4.1875,-31.079 12.6407,-37.598 8.457,-6.524 18.1953,-9.746 29.0665,-9.746 h 7.566 v -8.211 H 3.23047 v 8.211 c 17.71483,0.16 29.95313,3.785 36.96093,10.953 6.9219,7.16 10.3828,19.242 10.3828,36.391 v 226.484 l -6.6836,8.293 c -6.7617,8.691 -12.7187,14.41 -17.957,17.148 -5.1484,2.739 -12.6367,4.266 -22.37891,4.586 v 8.219 H 117"
         style="fill:#203d86;fill-opacity:1;fill-rule:nonzero;stroke:none"
         id="path14" /><path
         d="m 532.121,509.316 c 50.965,1.856 92.43,-12.961 124.313,-44.523 31.886,-31.637 47.828,-71.09 47.828,-118.594 0,-40.5 -11.918,-76.164 -35.668,-107 -31.481,-40.824 -75.926,-61.273 -133.41,-61.273 -57.649,0 -102.172,19.488 -133.657,58.453 -24.875,30.836 -37.355,67.309 -37.355,109.582 0,47.5 16.183,87.027 48.551,118.672 32.367,31.722 72.136,46.539 119.398,44.683 z m 2.824,-14.976 c -29.386,0 -51.695,-14.887 -67.07,-44.762 -12.484,-24.476 -18.68,-59.66 -18.68,-105.555 0,-54.507 9.66,-94.843 28.907,-120.929 13.445,-18.196 32.203,-27.293 56.355,-27.293 16.266,0 29.871,3.945 40.738,11.754 13.852,10.062 24.719,26.164 32.45,48.226 7.726,22.059 11.597,50.887 11.597,86.309 0,42.273 -3.949,73.914 -11.84,94.844 -7.886,21.015 -17.953,35.832 -30.191,44.449 -12.238,8.613 -26.328,12.957 -42.266,12.957"
         style="fill:#203d86;fill-opacity:1;fill-rule:nonzero;stroke:none"
         id="path16" /><path
         d="m 1247.07,509.316 c 50.97,1.856 92.44,-12.961 124.32,-44.523 31.88,-31.637 47.83,-71.09 47.83,-118.594 0,-40.5 -11.92,-76.164 -35.67,-107 -31.48,-40.824 -75.93,-61.273 -133.41,-61.273 -57.65,0 -102.17,19.488 -133.66,58.453 -24.87,30.836 -37.35,67.309 -37.35,109.582 0,47.5 16.18,87.027 48.55,118.672 32.37,31.722 72.14,46.539 119.39,44.683 z m 2.83,-14.976 c -29.39,0 -51.69,-14.887 -67.07,-44.762 -12.48,-24.476 -18.68,-59.66 -18.68,-105.555 0,-54.507 9.66,-94.843 28.9,-120.929 13.45,-18.196 32.21,-27.293 56.36,-27.293 16.27,0 29.88,3.945 40.74,11.754 13.85,10.062 24.72,26.164 32.45,48.226 7.73,22.059 11.6,50.887 11.6,86.309 0,42.273 -3.95,73.914 -11.84,94.844 -7.89,21.015 -17.96,35.832 -30.2,44.449 -12.23,8.613 -26.32,12.957 -42.26,12.957"
         style="fill:#203d86;fill-opacity:1;fill-rule:nonzero;stroke:none"
         id="path18" /><path
         d="m 1869.46,173.52 h -97.17 v 232.847 l -70.65,-231.804 h -66.39 l -70.66,231.804 V 173.52 h -91.84 v 351.199 h 124.05 l 74.4,-231.602 74.04,231.602 h 124.22 V 173.52"
         style="fill:#009fe3;fill-opacity:1;fill-rule:nonzero;stroke:none"
         id="path20" /><path
         d="m 1928.7,173.52 v 351.199 h 247.23 v -67.145 h -155.77 v -61.351 h 143.72 v -67.149 h -143.72 v -88.406 h 155.77 V 173.52 H 1928.7"
         style="fill:#009fe3;fill-opacity:1;fill-rule:nonzero;stroke:none"
         id="path22" /><path
         d="m 2564.43,348.797 c 0,-32.766 -7.16,-61.996 -21.41,-87.918 -14.33,-25.848 -32.45,-45.652 -54.27,-59.5 -18.2,-11.836 -38.09,-19.402 -59.5,-22.785 -21.5,-3.379 -44.28,-5.074 -68.52,-5.074 h -109.82 v 351.199 h 108.94 c 24.63,0 47.74,-1.61 69.24,-4.75 21.57,-3.141 41.79,-10.711 60.62,-22.867 23.11,-14.735 41.31,-34.7 54.67,-59.739 13.37,-25.121 20.05,-54.668 20.05,-88.566 z m -90.82,0.805 c 0,23.027 -3.94,42.753 -11.83,59.179 -7.89,16.422 -20.13,29.227 -36.56,38.485 -11.83,6.601 -24.39,10.226 -37.43,10.789 -13.04,0.64 -28.66,0.965 -46.86,0.965 h -1.61 V 239.703 h 1.61 c 19.72,0 36.39,0.32 49.92,1.047 13.52,0.723 26.41,4.91 38.64,12.641 14.41,9.097 25.36,21.574 32.85,37.597 7.49,16.024 11.27,35.504 11.27,58.614"
         style="fill:#009fe3;fill-opacity:1;fill-rule:nonzero;stroke:none"
         id="path24" /><path
         d="M 1129.8,5.19922 V 99.5352 h 19.1 V 5.19922 Z m 44.9,0 V 99.5352 h 18.49 l 38.82,-63.2188 v 63.2188 h 17.65 V 5.19922 h -19.07 L 1192.36,67.2148 V 5.19922 Z m 124,0 V 83.5898 h -27.93 v 15.9454 h 74.83 V 83.5898 h -27.8 V 5.19922 Z m 66.9,0 V 99.5352 h 69.82 V 83.5898 H 1384.7 V 62.6445 h 47.17 V 46.7031 H 1384.7 V 21.1445 h 52.57 V 5.19922 Z m 95.51,0 V 99.5352 h 40.12 c 10.07,0 17.41,-0.8555 21.98,-2.5469 4.59,-1.6914 8.23,-4.7031 10.98,-9.0274 2.74,-4.3476 4.12,-9.289 4.12,-14.8671 0,-7.0938 -2.06,-12.9336 -6.21,-17.543 -4.15,-4.6055 -10.34,-7.5078 -18.6,-8.7149 4.11,-2.3945 7.49,-5.0312 10.14,-7.9101 2.68,-2.875 6.29,-7.9883 10.81,-15.3242 l 11.5,-18.40238 h -22.77 l -13.65,20.60158 c -4.9,7.3086 -8.26,11.9219 -10.08,13.8281 -1.8,1.8906 -3.71,3.207 -5.73,3.9141 -2.04,0.7031 -5.25,1.0508 -9.64,1.0508 h -3.87 V 5.19922 Z m 19.1,54.41408 h 14.1 c 9.13,0 14.82,0.3984 17.11,1.164 2.26,0.7696 4.06,2.1133 5.33,3.9961 1.29,1.8868 1.93,4.2618 1.93,7.0938 0,3.1836 -0.85,5.7344 -2.54,7.7031 -1.69,1.957 -4.09,3.1875 -7.16,3.6953 -1.56,0.2149 -6.19,0.3242 -13.9,0.3242 h -14.87 z M 1563.89,5.19922 V 99.5352 h 18.49 l 38.83,-63.2188 v 63.2188 h 17.65 V 5.19922 h -19.08 L 1581.55,67.2148 V 5.19922 Z m 187.77,0 h -20.58 l -8.15,21.47658 h -37.83 l -7.84,-21.47658 h -20.2 l 36.62,94.33598 h 20.18 z m -34.92,37.41798 -13.11,34.9141 -12.74,-34.9141 z M 1780.9,5.19922 V 83.5898 h -27.93 v 15.9454 h 74.83 V 83.5898 h -27.79 V 5.19922 Z m 66.25,0 V 99.5352 h 19.1 V 5.19922 Z m 40.94,46.59768 c 0,9.6172 1.45,17.6953 4.33,24.2422 2.13,4.8086 5.07,9.1328 8.78,12.9531 3.71,3.8203 7.77,6.6523 12.19,8.5234 5.88,2.4805 12.67,3.7304 20.35,3.7304 13.92,0 25.03,-4.3241 33.4,-12.953 8.34,-8.6524 12.52,-20.668 12.52,-36.0586 0,-15.2617 -4.15,-27.2071 -12.43,-35.8125 -8.28,-8.62893 -19.37,-12.92971 -33.22,-12.92971 -14.04,0 -25.21,4.28125 -33.49,12.86721 -8.28,8.5586 -12.43,20.3789 -12.43,35.4375 z m 19.63,0.6367 c 0,-10.6953 2.48,-18.7969 7.42,-24.332 4.95,-5.5118 11.22,-8.2735 18.82,-8.2735 7.62,0 13.86,2.7422 18.75,8.2071 4.88,5.4921 7.31,13.7031 7.31,24.664 0,10.8203 -2.36,18.9024 -7.13,24.2149 -4.75,5.3359 -11.04,7.9961 -18.93,7.9961 -7.86,0 -14.21,-2.6993 -19.01,-8.0821 -4.81,-5.3984 -7.23,-13.5234 -7.23,-24.3945 z M 2002.16,5.19922 V 99.5352 h 18.49 l 38.82,-63.2188 v 63.2188 h 17.65 V 5.19922 h -19.08 L 2019.81,67.2148 V 5.19922 Z m 187.76,0 h -20.57 l -8.15,21.47658 h -37.83 l -7.84,-21.47658 h -20.21 l 36.63,94.33598 h 20.18 z M 2155.01,42.6172 2141.9,77.5313 2129.16,42.6172 Z M 2208.25,5.19922 V 98.7422 h 19.11 V 21.1445 h 47.29 V 5.19922 Z m 121.82,94.33598 h 37.72 c 7.49,0 13.05,-0.3047 16.71,-0.9258 3.7,-0.6328 6.96,-1.9297 9.86,-3.8828 2.9,-1.9805 5.32,-4.5899 7.25,-7.8594 1.93,-3.2774 2.9,-6.9649 2.9,-11.0234 0,-4.3985 -1.19,-8.4571 -3.56,-12.125 -2.37,-3.6915 -5.6,-6.4297 -9.66,-8.2774 5.73,-1.6914 10.12,-4.5469 13.22,-8.5859 3.07,-4.0352 4.61,-8.7813 4.61,-14.25 0,-4.3008 -0.99,-8.4766 -2.98,-12.5352 -2,-4.0664 -4.73,-7.3125 -8.19,-9.7539 -3.45,-2.41015 -7.71,-3.90624 -12.79,-4.47656 -3.16,-0.32812 -10.82,-0.55078 -22.97,-0.64062 h -32.12 z m 19.11,-15.6797 V 62.1172 h 12.46 c 7.41,0 12.02,0.1094 13.82,0.3281 3.25,0.3711 5.82,1.4922 7.68,3.3594 1.87,1.8672 2.79,4.3047 2.79,7.3359 0,2.9219 -0.81,5.2696 -2.41,7.0899 -1.61,1.8242 -4,2.9218 -7.16,3.2929 -1.89,0.2227 -7.31,0.3321 -16.25,0.3321 z m 0,-37.418 v -25.293 h 17.65 c 6.85,0 11.22,0.1953 13.06,0.5703 2.84,0.5235 5.15,1.7774 6.92,3.7774 1.78,2.0156 2.68,4.6719 2.68,8.0351 0,2.8555 -0.68,5.25 -2.06,7.2266 -1.36,1.9727 -3.36,3.4219 -5.96,4.3242 -2.59,0.9024 -8.23,1.3594 -16.9,1.3594 z M 2456.99,5.19922 2423.24,99.5352 h 20.64 l 23.96,-69.8282 22.98,69.8282 h 20.29 L 2477.56,5.19922 h -20.57"
         style="fill:#203d86;fill-opacity:1;fill-rule:nonzero;stroke:none"
         id="path26" /><path
         d="m 1065.27,517.094 v -13.5 c -11.6,-3.176 -21.98,-13.367 -31.08,-30.836 -6.6,-12.969 -16.42,-43.539 -29.55,-91.711 L 924.063,85.4023 H 859.379 L 778.008,397.59 c -13.203,50.683 -22.063,80.461 -26.488,89.195 -4.512,8.867 -12.965,14.426 -25.364,16.809 v 13.5 h 152.649 v -13.5 h -5.153 c -13.843,0 -23.343,-2.906 -28.339,-8.735 -3.622,-3.836 -5.395,-9.664 -5.395,-17.336 0,-4.765 0.562,-10.32 1.852,-16.808 1.293,-6.352 5.558,-23.555 12.804,-51.61 l 68.192,-261.511 62.879,232.785 c 7.648,28.59 12.398,47.644 14.085,57.309 1.77,9.66 2.66,17.867 2.66,24.746 0,7.812 -1.28,14.691 -3.785,20.777 -2.574,5.961 -6.199,10.59 -11.113,13.766 -6.762,4.371 -15.699,6.617 -26.887,6.617 v 13.5 h 104.665"
         style="fill:#203d86;fill-opacity:1;fill-rule:evenodd;stroke:none"
         id="path28" /><path
         d="M 1054.73,64.6133 H 43.8945 V 1.92188 H 1054.73 V 64.6133"
         style="fill:#203d86;fill-opacity:1;fill-rule:evenodd;stroke:none"
         id="path30" /></g></g></svg>
